<?xml version="1.0" encoding="iso-8859-1"?>
<!-- Generator: Adobe Illustrator 19.0.0, SVG Export Plug-In . SVG Version: 6.00 Build 0)  -->
<svg version="1.1" id="Capa_1" xmlns="http://www.w3.org/2000/svg" xmlns:xlink="http://www.w3.org/1999/xlink" x="0px" y="0px"
	 viewBox="0 0 513.067 513.067" style="enable-background:new 0 0 513.067 513.067;" xml:space="preserve">
<path style="fill:#E8EAE9;" d="M60.8,167.467V480c0,18.133,14.933,33.067,33.067,33.067H419.2c18.133,0,33.067-14.933,33.067-33.067
	V167.467H60.8z"/>
<g>
	<circle style="fill:#415A6B;" cx="360.533" cy="215.467" r="19.2"/>
	<circle style="fill:#415A6B;" cx="151.467" cy="215.467" r="19.2"/>
</g>
<path style="fill:#66C6B9;" d="M360.533,226.133C360.533,226.133,359.467,226.133,360.533,226.133
	c-7.467-1.067-11.733-6.4-10.667-11.733c6.4-66.133-10.667-132.267-42.667-167.467c-14.933-17.067-32-24.533-50.133-24.533
	c-18.133,0-35.2,8.533-50.133,24.533c-32,35.2-49.067,101.333-42.667,167.467c1.067,6.4-4.267,11.733-9.6,11.733
	c-6.4,1.067-11.733-4.267-11.733-9.6C134.4,144,153.6,72.533,189.867,32C209.067,10.667,232.533,0,256,0s46.933,10.667,66.133,32
	C358.4,71.467,377.6,144,371.2,216.533C371.2,221.867,365.867,226.133,360.533,226.133z"/>
<path style="fill:#F3705A;" d="M256,448c-37.333-48-104.533-66.133-104.533-139.733c0-29.867,24.533-54.4,54.4-54.4
	c22.4,0,42.667,13.867,50.133,34.133c8.533-20.267,27.733-34.133,50.133-34.133c29.867,0,54.4,24.533,54.4,54.4
	C360.533,381.867,295.467,397.867,256,448z"/>
<ellipse transform="matrix(-0.6558 -0.7549 0.7549 -0.6558 316.0153 724.2918)" style="fill:#FFFFFF;" cx="323.117" cy="290.107" rx="21.333" ry="10.666"/>
<g>
</g>
<g>
</g>
<g>
</g>
<g>
</g>
<g>
</g>
<g>
</g>
<g>
</g>
<g>
</g>
<g>
</g>
<g>
</g>
<g>
</g>
<g>
</g>
<g>
</g>
<g>
</g>
<g>
</g>
</svg>
