<?xml version="1.0" encoding="UTF-8" standalone="no"?> <svg id="Layer_1" data-name="Layer 1" xmlns="http://www.w3.org/2000/svg" viewBox="0 0 128 128"><defs><style>.cls-1{fill:#3b4551;}.cls-2{fill:#2b77c0;}</style></defs><title>a</title><path class="cls-1" d="M88.77565,58.4889a47.12114,47.12114,0,0,0,3.94113-17.54373,28.89656,28.89656,0,0,0-.21041-3.42457,28.70938,28.70938,0,0,0-57.1657,1.72178c-.0383.55493-.05745,1.12886-.05745,1.70279C35.28322,56.80534,48.13987,81.141,64,81.141c6.00736,0,11.55552-3.46287,16.14717-8.64759a49.51893,49.51893,0,0,1-9.64233.89923h-.17226A12.19482,12.19482,0,0,1,64,75.40141c-11.09641,0-22.97724-20.22226-22.97724-34.45624q0-.71751.05745-1.43493a59.68649,59.68649,0,0,0,30.38123-8.28407,59.28612,59.28612,0,0,0,15.09483,5.35691,21.90033,21.90033,0,0,1,.421,4.36209c0,6.44739-2.449,14.11924-6.14132,20.58578A42.05636,42.05636,0,0,0,88.77565,58.4889Z"/><path class="cls-2" d="M26.67162,43.33624a2.39125,2.39125,0,0,0,2.39145-2.39145c0-.724.01776-1.43117.072-2.17282A34.91828,34.91828,0,0,1,88.9656,16.52938a35.24521,35.24521,0,0,1,9.71447,20.24433,37.11888,37.11888,0,0,1,.25216,4.17107,40.9902,40.9902,0,0,1-.59692,6.79515L97.96164,49.952l2.1832.51471a5.88124,5.88124,0,0,1,4.527,5.76473,5.9468,5.9468,0,0,1-5.93015,5.94976,5.78456,5.78456,0,0,1-4.09724-1.6638l-1.27236-1.25552-1.56467.86416a42.90161,42.90161,0,0,1-23.86285,5.53479,4.48393,4.48393,0,1,0-.37029,4.76737c.98567.05014,1.96256.08575,2.921.08575a46.74687,46.74687,0,0,0,22.18552-5.43128,10.57466,10.57466,0,0,0,6.06088,1.88143,10.73412,10.73412,0,0,0,4.60549-20.42,44.30669,44.30669,0,0,0,.36806-5.59939,42.0838,42.0838,0,0,0-.28308-4.71662A40.02079,40.02079,0,0,0,92.38094,13.18133,39.6992,39.6992,0,0,0,24.3633,38.45243c-.06168.82394-.08313,1.6488-.08313,2.49235A2.39125,2.39125,0,0,0,26.67162,43.33624Z"/><path class="cls-1" d="M118.18767,105.73934c-1.63642-6.00067-4.64233-9.28919-10.63676-11.13886-5.4605-1.83083-22.30664-7.74975-27.17891-9.64441A48.70912,48.70912,0,0,1,64,102.66468,48.709,48.709,0,0,1,47.62793,84.95607c-4.87227,1.89466-21.71849,7.81358-27.17891,9.64441-5.99444,1.84967-9.00034,5.1382-10.63676,11.13886-1.85129,6.78892-2.18243,14.02988-2.18243,21.0329H120.37018C120.37018,119.76922,120.039,112.52826,118.18767,105.73934Zm-12.38177,8.82593H90.222a2.59732,2.59732,0,0,1,0-5.19464H105.8059a2.59732,2.59732,0,0,1,0,5.19464Z"/><path class="cls-2" d="M50.38544,44.29283a2.39149,2.39149,0,0,0,0,4.783h5.80964a2.39149,2.39149,0,0,0,0-4.783Z"/><path class="cls-2" d="M71.805,44.29283a2.39149,2.39149,0,0,0,0,4.783h5.80956a2.39149,2.39149,0,0,0,0-4.783Z"/></svg>